<?xml version="1.0" encoding="utf-8"?>
<!-- Generator: Adobe Illustrator 18.0.0, SVG Export Plug-In . SVG Version: 6.00 Build 0)  -->
<!DOCTYPE svg PUBLIC "-//W3C//DTD SVG 1.1//EN" "http://www.w3.org/Graphics/SVG/1.1/DTD/svg11.dtd">
<svg version="1.1" id="Layer_1" xmlns="http://www.w3.org/2000/svg" xmlns:xlink="http://www.w3.org/1999/xlink" x="0px" y="0px"
	 viewBox="0 0 32 64" enable-background="new 0 0 32 64" width="32px" height="64px" xml:space="preserve">
<line fill="none" stroke="#2d3434" stroke-width="4" stroke-miterlimit="10" x1="-37" y1="-43.5" x2="-37" y2="-58.3"/>
<circle fill="none" stroke="#2d3434" stroke-width="4" stroke-linecap="round" stroke-miterlimit="10" cx="-31.8" cy="-43.5" r="5.2"/>
<path fill="#2d3434" d="M-30.7-53c2.5,0,4.8,1,6.6,2.7c1.8,1.8,2.7,4.1,2.7,6.6h3.8c0-7.2-5.9-13.1-13.1-13.1V-53z M-30.7-59.8
	c8.8,0,16,7.2,16,16.1h3.8c0-11-8.9-19.9-19.8-19.9V-59.8z"/>
<line fill="none" stroke="#2d3434" stroke-width="4" stroke-miterlimit="10" x1="-64.6" y1="4.1" x2="-64.6" y2="-10.8"/>
<circle fill="none" stroke="#2d3434" stroke-width="4" stroke-linecap="round" stroke-miterlimit="10" cx="-59.4" cy="4.1" r="5.2"/>
<path fill="none" stroke="#2d3434" stroke-width="2" stroke-miterlimit="10" d="M-140.2-10.5c2.5,0,4.8,1,6.6,2.7
	c1.8,1.8,2.7,4.1,2.7,6.6l3.8,0c0-7.2-5.9-13.1-13.1-13.1V-10.5z M-140.2-17.2c8.8,0,16,7.2,16,16.1l3.8,0c0-11-8.9-19.9-19.8-19.9
	V-17.2z"/>
<path fill="none" stroke="#1D6CE6" stroke-width="2" stroke-linecap="round" stroke-miterlimit="10" d="M-55.3-6.6
	c3.1,1.3,5.3,3.7,6.4,6.6"/>
<path fill="none" stroke="#1D6CE6" stroke-width="2" stroke-linecap="round" stroke-miterlimit="10" d="M-53.8-11.4
	c4.6,1.9,8,5.4,9.9,9.6"/>
<g>
	<path fill="none" stroke="#2d3434" stroke-width="2.5" stroke-miterlimit="10" d="M26,23.3c0-4.7-3.8-8.5-8.5-8.5"/>
	<path fill="none" stroke="#2d3434" stroke-width="2.5" stroke-miterlimit="10" d="M30.6,23.3c0-7.3-5.9-13.2-13.2-13.2"/>
	<line fill="none" stroke="#2d3434" stroke-width="3.5" stroke-miterlimit="10" x1="10.8" y1="25" x2="10.8" y2="11.2"/>
	<circle fill="none" stroke="#2d3434" stroke-width="3.5" stroke-linecap="round" stroke-miterlimit="10" cx="16" cy="25" r="5.2"/>
</g>
<g>
	<path fill="none" stroke="#FFFFFF" stroke-width="2.5" stroke-miterlimit="10" d="M26,55.2c0-4.7-3.8-8.5-8.5-8.5"/>
	<path fill="none" stroke="#FFFFFF" stroke-width="2.5" stroke-miterlimit="10" d="M30.7,55.2c0-7.3-5.9-13.2-13.2-13.2"/>
	<line fill="none" stroke="#FFFFFF" stroke-width="3.5" stroke-miterlimit="10" x1="10.9" y1="57" x2="10.9" y2="43.1"/>
	
		<circle fill="none" stroke="#FFFFFF" stroke-width="3.5" stroke-linecap="round" stroke-miterlimit="10" cx="16.1" cy="57" r="5.2"/>
</g>
</svg>
