<?xml version="1.0" encoding="utf-8"?>
<!-- Generator: Adobe Illustrator 18.0.0, SVG Export Plug-In . SVG Version: 6.00 Build 0)  -->
<!DOCTYPE svg PUBLIC "-//W3C//DTD SVG 1.1//EN" "http://www.w3.org/Graphics/SVG/1.1/DTD/svg11.dtd">
<svg version="1.1" id="Layer_1" xmlns="http://www.w3.org/2000/svg" xmlns:xlink="http://www.w3.org/1999/xlink" x="0px" y="0px"
	 viewBox="0 0 60 60" enable-background="new 0 0 60 60" xml:space="preserve">
<g>
	<g>
		<path fill="#1D6CE6" d="M107.4,122.1c0,0.3-0.2,0.5-0.5,0.5H82.6c-0.3,0-0.5-0.2-0.5-0.5V97.7c0-0.3,0.2-0.5,0.5-0.5H107
			c0.3,0,0.5,0.2,0.5,0.5V122.1z"/>
	</g>
	<path fill="#5D5D5D" d="M104,105.2c0,0.2,0,0.4,0,0.7c0,6.3-4.8,13.4-13.4,13.4c-2.6,0-5.2-0.8-7.2-2.2c0.4,0,0.8,0.1,1.1,0.1
		c2.2,0,4.2-0.8,5.9-2.1c-2.1,0-3.8-1.4-4.4-3.3c0.3,0.1,0.6,0.1,0.8,0.1c0.5,0,0.8-0.1,1.2-0.2c-2.2-0.5-3.8-2.3-3.8-4.6
		c0,0,0,0,0-0.1c0.7,0.4,1.4,0.6,2.2,0.6c-1.3-0.8-2.1-2.2-2.1-3.9c0-0.8,0.2-1.7,0.7-2.3c2.3,2.9,5.8,4.8,9.8,5
		c-0.1-0.4-0.1-0.8-0.1-1c0-2.6,2.2-4.7,4.7-4.7c1.3,0,2.6,0.6,3.5,1.5c1-0.2,2.1-0.6,3-1.1c-0.4,1.1-1.1,2.1-2.1,2.6
		c0.9-0.1,1.9-0.4,2.7-0.8C105.7,103.7,104.9,104.5,104,105.2z"/>
</g>
<g>
	<g>
		<path fill="#1D6CE6" d="M144.7,122.1c0,0.3-0.2,0.5-0.5,0.5h-24.4c-0.3,0-0.5-0.2-0.5-0.5V97.7c0-0.3,0.2-0.5,0.5-0.5h24.4
			c0.3,0,0.5,0.2,0.5,0.5V122.1z"/>
	</g>
	<path fill="#5D5D5D" d="M137,109.9h-3.2c0,5.2,0,11.5,0,11.5H129c0,0,0-6.3,0-11.5h-2.2v-4h2.2v-2.6c0-1.9,0.9-4.9,4.8-4.9h3.6v3.9
		c0,0-2.2,0-2.5,0s-1,0.2-1,1.1v2.3h3.7L137,109.9z"/>
</g>
<g>
	<path fill="none" stroke="#FFFFFF" stroke-width="2" stroke-linecap="round" stroke-miterlimit="10" d="M106.4,27.5
		c0.1-0.2,0.3-0.2,0.5,0l3.9,7.6c0.1,0.2,0.5,0.5,0.7,0.5l8.9,1.2c0.3,0,0.3,0.2,0.1,0.4l-6.4,5.8c-0.2,0.2-0.3,0.6-0.3,0.8l1.5,8.3
		c0,0.3-0.1,0.4-0.4,0.3l-8-3.9c-0.2-0.1-0.7-0.1-0.8,0l-8,3.9c-0.2,0.1-0.4,0-0.4-0.3l1.5-8.3c0-0.3-0.1-0.6-0.3-0.8L92.5,37
		c-0.2-0.2-0.1-0.4,0.1-0.4l8.9-1.2c0.3,0,0.6-0.3,0.7-0.5L106.4,27.5z"/>
</g>
<g>
	<path fill="none" stroke="#2D3434" stroke-width="2" stroke-linecap="round" stroke-miterlimit="10" d="M106.4-5.5
		c0.1-0.2,0.3-0.2,0.5,0l3.9,7.6c0.1,0.2,0.5,0.5,0.7,0.5l8.9,1.2c0.3,0,0.3,0.2,0.1,0.4l-6.4,5.9c-0.2,0.2-0.3,0.6-0.3,0.8l1.5,8.3
		c0,0.3-0.1,0.4-0.4,0.3l-8-3.9c-0.2-0.1-0.7-0.1-0.8,0l-8,3.9c-0.2,0.1-0.4,0-0.4-0.3l1.5-8.3c0-0.3-0.1-0.6-0.3-0.8l-6.5-5.9
		c-0.2-0.2-0.1-0.4,0.1-0.4l8.9-1.2c0.3,0,0.6-0.3,0.7-0.5L106.4-5.5z"/>
</g>
<g>
	<g>
		<path fill="none" stroke="#FFFFFF" stroke-width="2" stroke-linecap="round" stroke-miterlimit="10" d="M44.1,58.6
			c0,0.3-0.2,0.5-0.5,0.5H16.4c-0.3,0-0.5-0.2-0.5-0.5V40.8c0-0.3,0.2-0.5,0.5-0.5h27.2c0.3,0,0.5,0.2,0.5,0.5V58.6z"/>
	</g>
	<g>
		
			<line fill="none" stroke="#FFFFFF" stroke-width="2" stroke-linecap="round" stroke-miterlimit="10" x1="15.9" y1="40.4" x2="30" y2="52.8"/>
		
			<line fill="none" stroke="#FFFFFF" stroke-width="2" stroke-linecap="round" stroke-miterlimit="10" x1="30" y1="52.8" x2="44.1" y2="40.4"/>
	</g>
	
		<line fill="none" stroke="#FFFFFF" stroke-width="2" stroke-linecap="round" stroke-miterlimit="10" x1="15.9" y1="59.1" x2="25.3" y2="48.8"/>
	
		<line fill="none" stroke="#FFFFFF" stroke-width="2" stroke-linecap="round" stroke-miterlimit="10" x1="34.7" y1="48.8" x2="44.1" y2="59.1"/>
</g>
<g>
	<g>
		<path fill="none" stroke="#2D3434" stroke-width="2" stroke-linecap="round" stroke-miterlimit="10" d="M44.1,28.5
			c0,0.3-0.2,0.5-0.5,0.5H16.4c-0.3,0-0.5-0.2-0.5-0.5V10.7c0-0.3,0.2-0.5,0.5-0.5h27.2c0.3,0,0.5,0.2,0.5,0.5V28.5z"/>
	</g>
	<g>
		
			<line fill="none" stroke="#2D3434" stroke-width="2" stroke-linecap="round" stroke-miterlimit="10" x1="15.9" y1="10.3" x2="30" y2="22.7"/>
		
			<line fill="none" stroke="#2D3434" stroke-width="2" stroke-linecap="round" stroke-miterlimit="10" x1="30" y1="22.7" x2="44.1" y2="10.3"/>
	</g>
	
		<line fill="none" stroke="#2D3434" stroke-width="2" stroke-linecap="round" stroke-miterlimit="10" x1="15.9" y1="29" x2="25.3" y2="18.7"/>
	
		<line fill="none" stroke="#2D3434" stroke-width="2" stroke-linecap="round" stroke-miterlimit="10" x1="34.7" y1="18.7" x2="44.1" y2="29"/>
</g>
</svg>
