<?xml version="1.0" encoding="utf-8"?>
<!-- Generator: Adobe Illustrator 18.0.0, SVG Export Plug-In . SVG Version: 6.00 Build 0)  -->
<!DOCTYPE svg PUBLIC "-//W3C//DTD SVG 1.1//EN" "http://www.w3.org/Graphics/SVG/1.1/DTD/svg11.dtd">
<svg version="1.1" id="Layer_1" xmlns="http://www.w3.org/2000/svg" xmlns:xlink="http://www.w3.org/1999/xlink" x="0px" y="0px"
	 viewBox="0 0 32 64" enable-background="new 0 0 32 64" xml:space="preserve">
<g>
	<g>
		<path fill="#2F77E8" d="M48,123.4c0,0.3-0.2,0.5-0.5,0.5h-26c-0.3,0-0.5-0.2-0.5-0.5v-26c0-0.3,0.2-0.5,0.5-0.5h26
			c0.3,0,0.5,0.2,0.5,0.5V123.4z"/>
	</g>
	<path fill="#5D5D5D" d="M44.3,105.4c0,0.2,0,0.4,0,0.7c0,6.7-5.1,14.3-14.3,14.3c-2.8,0-5.5-0.8-7.7-2.3c0.4,0,0.8,0.1,1.2,0.1
		c2.4,0,4.5-0.8,6.3-2.2c-2.2,0-4.1-1.5-4.7-3.5c0.3,0.1,0.6,0.1,0.9,0.1c0.5,0,0.9-0.1,1.3-0.2c-2.3-0.5-4-2.5-4-4.9c0,0,0,0,0-0.1
		c0.7,0.4,1.5,0.6,2.3,0.6c-1.4-0.9-2.2-2.4-2.2-4.2c0-0.9,0.2-1.8,0.7-2.5c2.5,3.1,6.2,5.1,10.4,5.3c-0.1-0.4-0.1-0.8-0.1-1.1
		c0-2.8,2.3-5,5-5c1.4,0,2.8,0.6,3.7,1.6c1.1-0.2,2.2-0.6,3.2-1.2c-0.4,1.2-1.2,2.2-2.2,2.8c1-0.1,2-0.4,2.9-0.8
		C46.1,103.8,45.3,104.8,44.3,105.4z"/>
</g>
<g>
	<path fill="#FFFFFF" d="M-13.9,44.2c0,0.2,0,0.4,0,0.7c0,6.7-5.1,14.3-14.3,14.3c-2.8,0-5.5-0.8-7.7-2.3c0.4,0,0.8,0.1,1.2,0.1
		c2.4,0,4.5-0.8,6.3-2.2c-2.2,0-4.1-1.5-4.7-3.5c0.3,0.1,0.6,0.1,0.9,0.1c0.5,0,0.9-0.1,1.3-0.2c-2.3-0.5-4-2.5-4-4.9c0,0,0,0,0-0.1
		c0.7,0.4,1.5,0.6,2.3,0.6c-1.4-0.9-2.2-2.4-2.2-4.2c0-0.9,0.2-1.8,0.7-2.5c2.5,3.1,6.2,5.1,10.4,5.3c-0.1-0.4-0.1-0.8-0.1-1.1
		c0-2.8,2.3-5,5-5c1.4,0,2.8,0.6,3.7,1.6c1.1-0.2,2.2-0.6,3.2-1.2c-0.4,1.2-1.2,2.2-2.2,2.8c1-0.1,2-0.4,2.9-0.8
		C-12.1,42.6-12.9,43.5-13.9,44.2z"/>
</g>
<g>
	<path fill="#1D6CE6" d="M73.2,65.8c0,0.3-0.2,0.5-0.5,0.5h-26c-0.3,0-0.5-0.2-0.5-0.5v-26c0-0.3,0.2-0.5,0.5-0.5h26
		c0.3,0,0.5,0.2,0.5,0.5V65.8z"/>
</g>
<path fill="#FFFFFF" d="M21.2,51.7h-3.4c0,5.5,0,12.3,0,12.3h-5.1c0,0,0-6.7,0-12.3h-2.4v-4.3h2.4v-2.8c0-2,1-5.2,5.1-5.2h3.8v4.2
	c0,0-2.3,0-2.7,0c-0.4,0-1.1,0.2-1.1,1.2v2.5h3.9L21.2,51.7z"/>
<g>
	<path fill="none" stroke="#FFFFFF" stroke-width="2" stroke-linecap="round" stroke-miterlimit="10" d="M97.5,29.3
		c0.1-0.2,0.3-0.2,0.5,0l4.2,8.1c0.1,0.2,0.5,0.5,0.7,0.5l9.5,1.3c0.3,0,0.3,0.2,0.1,0.4l-6.8,6.2c-0.2,0.2-0.3,0.6-0.3,0.8l1.6,8.9
		c0,0.3-0.1,0.4-0.4,0.3l-8.5-4.2c-0.2-0.1-0.7-0.1-0.9,0l-8.5,4.2c-0.2,0.1-0.4,0-0.4-0.3l1.6-8.9c0-0.3-0.1-0.6-0.3-0.8l-6.9-6.3
		c-0.2-0.2-0.1-0.4,0.1-0.4l9.5-1.3c0.3,0,0.6-0.3,0.7-0.5L97.5,29.3z"/>
</g>
<g>
	<path fill="none" stroke="#2F77E8" stroke-width="2" stroke-linecap="round" stroke-miterlimit="10" d="M97.5-5.9
		c0.1-0.2,0.3-0.2,0.5,0l4.2,8.1c0.1,0.2,0.5,0.5,0.7,0.5l9.5,1.3c0.3,0,0.3,0.2,0.1,0.4l-6.8,6.3c-0.2,0.2-0.3,0.6-0.3,0.8l1.6,8.9
		c0,0.3-0.1,0.4-0.4,0.3l-8.5-4.2c-0.2-0.1-0.7-0.1-0.9,0l-8.5,4.2c-0.2,0.1-0.4,0-0.4-0.3l1.6-8.9c0-0.3-0.1-0.6-0.3-0.8l-6.9-6.3
		C82.5,4.2,82.6,4,82.8,4l9.5-1.3c0.3,0,0.6-0.3,0.7-0.5L97.5-5.9z"/>
</g>
<g>
	<g>
		<path fill="none" stroke="#FFFFFF" stroke-width="2" stroke-linecap="round" stroke-miterlimit="10" d="M59.7,95
			c0,0.3-0.2,0.5-0.5,0.5h-29c-0.3,0-0.5-0.2-0.5-0.5V76c0-0.3,0.2-0.5,0.5-0.5h29c0.3,0,0.5,0.2,0.5,0.5V95z"/>
	</g>
	<g>
		
			<line fill="none" stroke="#FFFFFF" stroke-width="2" stroke-linecap="round" stroke-miterlimit="10" x1="29.7" y1="75.6" x2="44.7" y2="88.8"/>
		
			<line fill="none" stroke="#FFFFFF" stroke-width="2" stroke-linecap="round" stroke-miterlimit="10" x1="44.7" y1="88.8" x2="59.7" y2="75.6"/>
	</g>
	
		<line fill="none" stroke="#FFFFFF" stroke-width="2" stroke-linecap="round" stroke-miterlimit="10" x1="29.7" y1="95.5" x2="39.7" y2="84.5"/>
	
		<line fill="none" stroke="#FFFFFF" stroke-width="2" stroke-linecap="round" stroke-miterlimit="10" x1="49.7" y1="84.5" x2="59.7" y2="95.5"/>
</g>
<g>
	<path fill="#2F77E8" d="M-34.3,25.9c0,0.3-0.2,0.5-0.5,0.5h-26c-0.3,0-0.5-0.2-0.5-0.5v-26c0-0.3,0.2-0.5,0.5-0.5h26
		c0.3,0,0.5,0.2,0.5,0.5V25.9z"/>
</g>
<path fill="#2F77E8" d="M70.5,14.1c0,0.2,0,0.4,0,0.7c0,6.7-5.1,14.3-14.3,14.3c-2.8,0-5.5-0.8-7.7-2.3c0.4,0,0.8,0.1,1.2,0.1
	c2.4,0,4.5-0.8,6.3-2.2c-2.2,0-4.1-1.5-4.7-3.5c0.3,0.1,0.6,0.1,0.9,0.1c0.5,0,0.9-0.1,1.3-0.2c-2.3-0.5-4-2.5-4-4.9c0,0,0,0,0-0.1
	c0.7,0.4,1.5,0.6,2.3,0.6c-1.4-0.9-2.2-2.4-2.2-4.2c0-0.9,0.2-1.8,0.7-2.5c2.5,3.1,6.2,5.1,10.4,5.3c-0.1-0.4-0.1-0.8-0.1-1.1
	c0-2.8,2.3-5,5-5c1.4,0,2.8,0.6,3.7,1.6c1.1-0.2,2.2-0.6,3.2-1.2c-0.4,1.2-1.2,2.2-2.2,2.8c1-0.1,2-0.4,2.9-0.8
	C72.3,12.5,71.5,13.4,70.5,14.1z"/>
<path fill="#2F77E8" d="M21.2,19.7h-3.4c0,5.5,0,12.3,0,12.3h-5.1c0,0,0-6.7,0-12.3h-2.4v-4.3h2.4v-2.8c0-2,1-5.2,5.1-5.2h3.8v4.2
	c0,0-2.3,0-2.7,0c-0.4,0-1.1,0.2-1.1,1.2v2.5h3.9L21.2,19.7z"/>
</svg>
