<?xml version="1.0" encoding="utf-8"?>
<!-- Generator: Adobe Illustrator 18.0.0, SVG Export Plug-In . SVG Version: 6.00 Build 0)  -->
<!DOCTYPE svg PUBLIC "-//W3C//DTD SVG 1.1//EN" "http://www.w3.org/Graphics/SVG/1.1/DTD/svg11.dtd">
<svg version="1.1" id="Layer_1" xmlns="http://www.w3.org/2000/svg" xmlns:xlink="http://www.w3.org/1999/xlink" x="0px" y="0px"
	 viewBox="0 0 960 505" enable-background="new 0 0 960 505" xml:space="preserve">
<rect x="678.3" y="1171.7" fill="#1D6EC6" width="960" height="505"/>
<g>
	<g>
		<path fill="#1d6ec6" d="M188.2,441.2c0.1,0.3-0.1,0.5-0.4,0.5H69.1c-0.3,0-0.5-0.2-0.5-0.5v-374c0-0.3,0.2-0.5,0.5-0.5h32.3
			c0.3,0,0.5,0.2,0.5,0.5v344.5c0,0.3,0.2,0.5,0.5,0.5l76.3,0.1c0.3,0,0.6,0.2,0.6,0.5L188.2,441.2z"/>
		<path fill="none" stroke="#1d6ec6" stroke-width="7" stroke-miterlimit="10" d="M188.2,441.2c0.1,0.3-0.1,0.5-0.4,0.5H69.1
			c-0.3,0-0.5-0.2-0.5-0.5v-374c0-0.3,0.2-0.5,0.5-0.5h32.3c0.3,0,0.5,0.2,0.5,0.5v344.5c0,0.3,0.2,0.5,0.5,0.5l76.3,0.1
			c0.3,0,0.6,0.2,0.6,0.5L188.2,441.2z"/>
	</g>
	<g>
		<path fill="#1d6ec6" d="M408.5,68.8c0.3,0,0.4,0.2,0.4,0.5L363.7,220c-0.1,0.3-0.1,0.5-0.1,0.5c0,0-0.1,0.2-0.2,0.5l-22.5,75
			c-0.1,0.3-0.1,0.7-0.1,1v144.2c0,0.3-0.2,0.5-0.5,0.5h-32.3c-0.3,0-0.5-0.2-0.5-0.5V296.9c0-0.3,0-0.7-0.1-1l-10-37.4
			c-0.1-0.3-0.2-0.7-0.3-1L284.8,221c-0.1-0.3-0.2-0.7-0.3-1L239.3,69.3c-0.1-0.3,0.1-0.5,0.4-0.5l32.8-2.1c0.3,0,0.6,0.2,0.6,0.5
			l51.2,186.6c0.1,0.3,0.2,0.3,0.3,0l50.8-186.6c0.1-0.3,0.4-0.5,0.6-0.5L408.5,68.8z"/>
		<path fill="none" stroke="#1d6ec6" stroke-width="7" stroke-miterlimit="10" d="M408.5,68.8c0.3,0,0.4,0.2,0.4,0.5L363.7,220
			c-0.1,0.3-0.1,0.5-0.1,0.5c0,0-0.1,0.2-0.2,0.5l-22.5,75c-0.1,0.3-0.1,0.7-0.1,1v144.2c0,0.3-0.2,0.5-0.5,0.5h-32.3
			c-0.3,0-0.5-0.2-0.5-0.5V296.9c0-0.3,0-0.7-0.1-1l-10-37.4c-0.1-0.3-0.2-0.7-0.3-1L284.8,221c-0.1-0.3-0.2-0.7-0.3-1L239.3,69.3
			c-0.1-0.3,0.1-0.5,0.4-0.5l32.8-2.1c0.3,0,0.6,0.2,0.6,0.5l51.2,186.6c0.1,0.3,0.2,0.3,0.3,0l50.8-186.6c0.1-0.3,0.4-0.5,0.6-0.5
			L408.5,68.8z"/>
	</g>
	<path fill="#1d6ec6" stroke="#1d6ec6" stroke-width="7" stroke-miterlimit="10" d="M609.5,96.1h-57c-0.3,0-0.5,0.2-0.5,0.5v344.5
		c0,0.3-0.2,0.5-0.5,0.5h-32.3c-0.3,0-0.5-0.2-0.5-0.5V96.6c0-0.3-0.2-0.5-0.5-0.5h-57.3c-0.3,0-0.6-0.3-0.5-0.6l8.5-28.5
		c0.1-0.2,0.3-0.4,0.5-0.4h140.1c0.3,0,0.5,0.2,0.5,0.5v28.5C610,95.9,609.8,96.1,609.5,96.1z"/>
	<path fill="#1d6ec6" stroke="#1d6ec6" stroke-width="7" stroke-miterlimit="10" d="M691,442.1h-26.5c-1.4,0-2.5-1.2-2.5-2.8V180.6
		c0-1.5,1.1-2.8,2.5-2.8H691c1.4,0,2.5,1.2,2.5,2.8v258.7C693.5,440.8,692.4,442.1,691,442.1z"/>
	<path fill="#1d6ec6" stroke="#1d6ec6" stroke-width="7" stroke-miterlimit="10" d="M892,96.1h-54.5c-0.3,0-0.5,0.2-0.5,0.5v344.5
		c0,0.3-0.2,0.5-0.5,0.5h-32.3c-0.3,0-0.5-0.2-0.5-0.5V96.6c0-0.3-0.2-0.5-0.5-0.5h-57.5c-0.3,0-0.5-0.2-0.5-0.5V67.2
		c0-0.3,0.2-0.5,0.5-0.5H892c0.3,0,0.5,0.2,0.5,0.5v28.5C892.5,95.9,892.3,96.1,892,96.1z"/>
	<path fill="#1d6ec6" stroke="#1D6EC6" stroke-width="9" stroke-miterlimit="10" d="M551.1,306.2"/>
	<circle fill="#1d6ec6" stroke="#1d6ec6" stroke-width="7" stroke-miterlimit="10" cx="678.3" cy="87" r="20.5"/>
	<path fill="#1d6ec6" stroke="#1d6ec6" stroke-miterlimit="10" d="M252.9,158.7"/>
</g>
</svg>
