<?xml version="1.0" encoding="utf-8"?>
<!-- Generator: Adobe Illustrator 18.0.0, SVG Export Plug-In . SVG Version: 6.00 Build 0)  -->
<!DOCTYPE svg PUBLIC "-//W3C//DTD SVG 1.1//EN" "http://www.w3.org/Graphics/SVG/1.1/DTD/svg11.dtd">
<svg version="1.1" id="Layer_1" xmlns="http://www.w3.org/2000/svg" xmlns:xlink="http://www.w3.org/1999/xlink" x="0px" y="0px"
	 viewBox="0 0 70 46" enable-background="new 0 0 70 46" xml:space="preserve">
<rect x="162.5" y="-13.4" fill="#5D5D5D" width="84" height="81.2"/>
<path fill="none" stroke="#000000" stroke-width="3" stroke-miterlimit="10" d="M-167.1,15.7"/>
<path fill="none" stroke="#FFFFFF" stroke-width="3" stroke-miterlimit="10" d="M-74.9,36.8"/>
<path fill="none" stroke="#000000" stroke-width="3" stroke-miterlimit="10" d="M-89.1,62.7"/>
<circle fill="#FFFFFF" stroke="#FFFFFF" stroke-width="2" stroke-miterlimit="10" cx="52.3" cy="8.5" r="1.3"/>
<path fill="none" stroke="#FFFFFF" stroke-width="3" stroke-miterlimit="10" d="M48.9,21.6"/>
<line fill="none" stroke="#FFFFFF" stroke-width="3" stroke-miterlimit="10" x1="7.5" y1="3.2" x2="7.5" y2="31.2"/>
<line fill="none" stroke="#FFFFFF" stroke-width="3" stroke-miterlimit="10" x1="52.3" y1="12.2" x2="52.3" y2="31.2"/>
<path fill="none" stroke="#FFFFFF" stroke-width="3" stroke-miterlimit="10" d="M39.3,3.2v21.6c0,0-0.1,1.8,1,3
	c1.4,1.5,2.9,1.9,5.5,1.9"/>
<line fill="none" stroke="#FFFFFF" stroke-width="3" stroke-miterlimit="10" x1="39.8" y1="12.2" x2="45.8" y2="12.2"/>
<path fill="none" stroke="#FFFFFF" stroke-width="3" stroke-miterlimit="10" d="M30.9,12"/>
<path fill="none" stroke="#000000" stroke-width="3" stroke-miterlimit="10" d="M16.7,38"/>
<g>
	<path fill="none" stroke="#FFFFFF" stroke-width="3" stroke-miterlimit="10" d="M30.5,12.2v10.4c0,3.9-3.1,7.1-7,7.1h0
		c-3.8,0-7-3.2-7-7.1V12.2"/>
	<path fill="none" stroke="#FFFFFF" stroke-width="3" stroke-miterlimit="10" d="M30.5,23.2v12.4c0,3.9-3.1,7.1-7,7.1h0
		c-3.8,0-7-3.2-7-7.1"/>
	<path fill="none" stroke="#FFFFFF" stroke-width="3" stroke-miterlimit="10" d="M30.5,24.2"/>
</g>
<path fill="none" stroke="#FFFFFF" stroke-width="3" stroke-miterlimit="10" d="M28.3,20.5"/>
<path fill="none" stroke="#FFFFFF" stroke-width="3" stroke-miterlimit="10" d="M60.3,3.2v21.6c0,0-0.1,1.8,1,3
	c1.4,1.5,2.9,1.9,5.5,1.9"/>
<line fill="none" stroke="#FFFFFF" stroke-width="3" stroke-miterlimit="10" x1="60.7" y1="12.2" x2="66.7" y2="12.2"/>
<g>
	<path fill="#1D6EC6" d="M107.4,48.7L107.4,48.7c-14.1,0-25.4-11.4-25.4-25.4v0c0-14.1,11.4-25.4,25.4-25.4h0
		c14.1,0,25.4,11.4,25.4,25.4v0C132.8,37.3,121.4,48.7,107.4,48.7z"/>
	<path fill="#FFFFFF" d="M99.8,43.2l6.3-16.8c0.1-0.3-0.1-0.7-0.5-0.7l-7.7,0c-0.4,0-0.7-0.5-0.4-0.8l16.5-22
		c0.4-0.5,1.1-0.1,0.9,0.5l-6.3,16.8c-0.1,0.3,0.1,0.7,0.5,0.7l7.7,0c0.4,0,0.7,0.5,0.4,0.8l-16.5,22
		C100.3,44.2,99.6,43.8,99.8,43.2z"/>
</g>
</svg>
