<?xml version="1.0" encoding="utf-8"?>
<!-- Generator: Adobe Illustrator 18.0.0, SVG Export Plug-In . SVG Version: 6.00 Build 0)  -->
<!DOCTYPE svg PUBLIC "-//W3C//DTD SVG 1.1//EN" "http://www.w3.org/Graphics/SVG/1.1/DTD/svg11.dtd">
<svg version="1.1" id="Layer_1" xmlns="http://www.w3.org/2000/svg" xmlns:xlink="http://www.w3.org/1999/xlink" x="0px" y="0px"
	 viewBox="0 0 32 64" enable-background="new 0 0 32 64" width="32px" height="64px" xml:space="preserve">
<g>
	<g>
		<path fill="none" stroke="#FFFFFF" stroke-width="2" stroke-linecap="round" stroke-miterlimit="10" d="M30.1,62.4
			c0,0.3-0.2,0.5-0.5,0.5H2.4c-0.3,0-0.5-0.2-0.5-0.5V44.6c0-0.3,0.2-0.5,0.5-0.5h27.2c0.3,0,0.5,0.2,0.5,0.5V62.4z"/>
	</g>
	<g>
		
			<line fill="none" stroke="#FFFFFF" stroke-width="2" stroke-linecap="round" stroke-miterlimit="10" x1="1.9" y1="44.3" x2="16" y2="56.6"/>
		
			<line fill="none" stroke="#FFFFFF" stroke-width="2" stroke-linecap="round" stroke-miterlimit="10" x1="16" y1="56.6" x2="30.1" y2="44.3"/>
	</g>
	
		<line fill="none" stroke="#FFFFFF" stroke-width="2" stroke-linecap="round" stroke-miterlimit="10" x1="1.9" y1="62.9" x2="11.3" y2="52.6"/>
	
		<line fill="none" stroke="#FFFFFF" stroke-width="2" stroke-linecap="round" stroke-miterlimit="10" x1="20.7" y1="52.6" x2="30.1" y2="62.9"/>
</g>
<g>
	<g>
		<path fill="none" stroke="#2d3434" stroke-width="2" stroke-linecap="round" stroke-miterlimit="10" d="M30.1,30.5
			c0,0.3-0.2,0.5-0.5,0.5H2.4c-0.3,0-0.5-0.2-0.5-0.5V12.7c0-0.3,0.2-0.5,0.5-0.5h27.2c0.3,0,0.5,0.2,0.5,0.5V30.5z"/>
	</g>
	<g>
		
			<line fill="none" stroke="#2d3434" stroke-width="2" stroke-linecap="round" stroke-miterlimit="10" x1="1.9" y1="12.3" x2="16" y2="24.7"/>
		
			<line fill="none" stroke="#2d3434" stroke-width="2" stroke-linecap="round" stroke-miterlimit="10" x1="16" y1="24.7" x2="30.1" y2="12.3"/>
	</g>
	
		<line fill="none" stroke="#2d3434" stroke-width="2" stroke-linecap="round" stroke-miterlimit="10" x1="1.9" y1="31" x2="11.3" y2="20.7"/>
	
		<line fill="none" stroke="#2d3434" stroke-width="2" stroke-linecap="round" stroke-miterlimit="10" x1="20.7" y1="20.7" x2="30.1" y2="31"/>
</g>
</svg>
