<?xml version="1.0" encoding="utf-8"?>
<!-- Generator: Adobe Illustrator 18.0.0, SVG Export Plug-In . SVG Version: 6.00 Build 0)  -->
<!DOCTYPE svg PUBLIC "-//W3C//DTD SVG 1.1//EN" "http://www.w3.org/Graphics/SVG/1.1/DTD/svg11.dtd">
<svg version="1.1" id="Layer_1" xmlns="http://www.w3.org/2000/svg" xmlns:xlink="http://www.w3.org/1999/xlink" x="0px" y="0px"
	 viewBox="0 0 100 100" enable-background="new 0 0 100 100" xml:space="preserve">
<circle fill="#1D6EC6" cx="-209" cy="-181" r="50"/>
<g>
	
		<line fill="none" stroke="#FFFFFF" stroke-width="6" stroke-linecap="round" stroke-miterlimit="10" x1="-209" y1="-199.7" x2="-209" y2="-162.3"/>
	
		<line fill="none" stroke="#FFFFFF" stroke-width="6" stroke-linecap="round" stroke-miterlimit="10" x1="-190.4" y1="-181" x2="-227.7" y2="-181"/>
</g>
<g>
	<circle fill="#1D6EC6" cx="-378" cy="-104" r="50"/>
	<g>
		
			<line fill="none" stroke="#FFFFFF" stroke-width="6" stroke-linecap="round" stroke-miterlimit="10" x1="-358.5" y1="-117.2" x2="-384.9" y2="-90.8"/>
		
			<line fill="none" stroke="#FFFFFF" stroke-width="6" stroke-linecap="round" stroke-miterlimit="10" x1="-384.9" y1="-90.8" x2="-397.5" y2="-103.3"/>
	</g>
</g>
<path fill="none" stroke="#FFFFFF" stroke-width="6" stroke-linecap="round" stroke-miterlimit="10" d="M-144.5,249h-57.2
	c-3.5,0-6.4-2.9-6.4-6.4v-37.6c0-3.5,2.9-6.4,6.4-6.4h57.2c3.5,0,6.4,2.9,6.4,6.4v37.6C-138,246.1-140.9,249-144.5,249z"/>
<path fill="none" stroke="#FFFFFF" stroke-width="6" stroke-linecap="round" stroke-miterlimit="10" d="M-89.6,230.3h-31.7
	c-2,0-3.6-1.6-3.6-3.6v-20.9c0-2,1.6-3.6,3.6-3.6h31.7c2,0,3.6,1.6,3.6,3.6v20.9C-86.1,228.7-87.7,230.3-89.6,230.3z"/>
<polygon fill="none" stroke="#FFFFFF" stroke-width="6" stroke-linecap="round" stroke-miterlimit="10" points="-139,299 -111,299 
	-139,330.2 "/>
<rect x="-139" y="247" fill="none" stroke="#FFFFFF" stroke-width="6" stroke-linecap="round" stroke-miterlimit="10" width="67" height="52"/>
<g>
	<g>
		<path fill="none" stroke="#FFFFFF" stroke-width="6" stroke-linecap="round" stroke-miterlimit="10" d="M-284,187v-20
			c0-3.3-2.7-6-6-6h-55c-3.3,0-6,2.7-6,6v61.9c0,3.3,1.8,4,4,1.5l11.7-13c2.2-2.5,6.7-4.5,10-4.5h7.3"/>
	</g>
	<g>
		<path fill="none" stroke="#FFFFFF" stroke-width="6" stroke-linecap="round" stroke-miterlimit="10" d="M-312,187
			c-3.3,0-6,2.7-6,6v40c0,3.3,2.7,6,6,6h35.3c3.3,0,7.8,2,10,4.5l11.7,13c2.2,2.5,4,1.8,4-1.5V193c0-3.3-2.7-6-6-6H-312z"/>
	</g>
</g>
<circle fill="#1D6EC6" cx="50" cy="50" r="50"/>
<g>
	<g>
		<path fill="none" stroke="#FFFFFF" stroke-width="2" stroke-linecap="round" stroke-miterlimit="10" d="M59.2,37.6V30
			c0-3.3-2.7-6-6-6H30.1c-3.3,0-6,2.7-6,6v26.8c0,3.3,1.8,4,4,1.5l2.3-2.6c2.2-2.5,5.6-4.5,7.5-4.5s3.5,0,3.5,0"/>
	</g>
	<g>
		<path fill="none" stroke="#FFFFFF" stroke-width="2" stroke-linecap="round" stroke-miterlimit="10" d="M47.4,37.6
			c-3.3,0-6,2.7-6,6v15.3c0,3.3,2.7,6,6,6h12.8c3.3,0,7.8,2,10,4.5l2.3,2.6c2.2,2.5,4,1.8,4-1.5V43.6c0-3.3-2.7-6-6-6H47.4z"/>
	</g>
</g>
</svg>
