<?xml version="1.0" encoding="utf-8"?>
<!-- Generator: Adobe Illustrator 18.0.0, SVG Export Plug-In . SVG Version: 6.00 Build 0)  -->
<!DOCTYPE svg PUBLIC "-//W3C//DTD SVG 1.1//EN" "http://www.w3.org/Graphics/SVG/1.1/DTD/svg11.dtd">
<svg version="1.1" id="Layer_1" xmlns="http://www.w3.org/2000/svg" xmlns:xlink="http://www.w3.org/1999/xlink" x="0px" y="0px"
	 viewBox="0 0 32 64" enable-background="new 0 0 32 64" width="32px" height="64px" xml:space="preserve">
<g>
	<g>
		
			<line fill="none" stroke="#FFFFFF" stroke-width="2" stroke-linecap="round" stroke-miterlimit="10" x1="1" y1="46.5" x2="16" y2="34.1"/>
		
			<line fill="none" stroke="#FFFFFF" stroke-width="2" stroke-linecap="round" stroke-miterlimit="10" x1="16" y1="34.1" x2="31" y2="46.5"/>
	</g>
	
		<line fill="none" stroke="#FFFFFF" stroke-width="2" stroke-linecap="round" stroke-miterlimit="10" x1="3.6" y1="44.9" x2="3.6" y2="63"/>
	
		<line fill="none" stroke="#FFFFFF" stroke-width="2" stroke-linecap="round" stroke-miterlimit="10" x1="3.6" y1="63" x2="28.4" y2="63"/>
	
		<line fill="none" stroke="#FFFFFF" stroke-width="2" stroke-linecap="round" stroke-miterlimit="10" x1="28.4" y1="37.1" x2="28.4" y2="63"/>
	
		<line fill="none" stroke="#FFFFFF" stroke-width="2" stroke-linecap="round" stroke-miterlimit="10" x1="24.6" y1="37.1" x2="24.6" y2="40.8"/>
	
		<line fill="none" stroke="#FFFFFF" stroke-width="2" stroke-linecap="round" stroke-miterlimit="10" x1="24.6" y1="37.1" x2="28.1" y2="37.1"/>
</g>
<g>
	<path fill="none" stroke="#1d6ec6" stroke-width="2" stroke-linecap="round" stroke-miterlimit="10" d="M-21.1,101.5
		c0.1-0.2,0.3-0.2,0.4,0l4.2,8.5c0.1,0.2,0.4,0.5,0.7,0.5l9.3,1.4c0.3,0,0.3,0.2,0.1,0.4l-6.8,6.6c-0.2,0.2-0.3,0.6-0.3,0.8l1.6,9.3
		c0,0.3-0.1,0.4-0.4,0.3l-8.4-4.4c-0.2-0.1-0.6-0.1-0.9,0l-8.4,4.4c-0.2,0.1-0.4,0-0.4-0.3l1.6-9.3c0-0.3-0.1-0.6-0.3-0.8l-6.8-6.6
		c-0.2-0.2-0.1-0.4,0.1-0.4l9.3-1.4c0.3,0,0.6-0.3,0.7-0.5L-21.1,101.5z"/>
</g>
<g>
	<g>
		<path fill="none" stroke="#1d6ec6" stroke-width="2" stroke-linecap="round" stroke-miterlimit="10" d="M48.7,129.1
			c0,0.3-0.2,0.5-0.5,0.5h-29c-0.3,0-0.5-0.2-0.5-0.5v-19c0-0.3,0.2-0.5,0.5-0.5h29c0.3,0,0.5,0.2,0.5,0.5V129.1z"/>
	</g>
	<g>
		
			<line fill="none" stroke="#1d6ec6" stroke-width="2" stroke-linecap="round" stroke-miterlimit="10" x1="18.7" y1="109.7" x2="33.7" y2="122.9"/>
		
			<line fill="none" stroke="#1d6ec6" stroke-width="2" stroke-linecap="round" stroke-miterlimit="10" x1="33.7" y1="122.9" x2="48.7" y2="109.7"/>
	</g>
	
		<line fill="none" stroke="#1d6ec6" stroke-width="2" stroke-linecap="round" stroke-miterlimit="10" x1="18.7" y1="129.6" x2="28.7" y2="118.6"/>
	
		<line fill="none" stroke="#1d6ec6" stroke-width="2" stroke-linecap="round" stroke-miterlimit="10" x1="38.7" y1="118.6" x2="48.7" y2="129.6"/>
</g>
<g>
	<g>
		<path fill="#1d6ec6" d="M98.6,130.2c0,0.3-0.2,0.5-0.5,0.5h-26c-0.3,0-0.5-0.2-0.5-0.5v-26c0-0.3,0.2-0.5,0.5-0.5h26
			c0.3,0,0.5,0.2,0.5,0.5V130.2z"/>
	</g>
	<path fill="#5D5D5D" d="M94.9,112.2c0,0.2,0,0.4,0,0.7c0,6.7-5.1,14.3-14.3,14.3c-2.8,0-5.5-0.8-7.7-2.3c0.4,0,0.8,0.1,1.2,0.1
		c2.4,0,4.5-0.8,6.3-2.2c-2.2,0-4.1-1.5-4.7-3.5c0.3,0.1,0.6,0.1,0.9,0.1c0.5,0,0.9-0.1,1.3-0.2c-2.3-0.5-4-2.5-4-4.9c0,0,0,0,0-0.1
		c0.7,0.4,1.5,0.6,2.3,0.6c-1.4-0.9-2.2-2.4-2.2-4.2c0-0.9,0.2-1.8,0.7-2.5c2.5,3.1,6.2,5.1,10.4,5.3c-0.1-0.4-0.1-0.8-0.1-1.1
		c0-2.8,2.3-5,5-5c1.4,0,2.8,0.6,3.7,1.6c1.1-0.2,2.2-0.6,3.2-1.2c-0.4,1.2-1.2,2.2-2.2,2.8c1-0.1,2-0.4,2.9-0.8
		C96.7,110.6,95.9,111.5,94.9,112.2z"/>
</g>
<g>
	<g>
		<path fill="#1d6ec6" d="M138.3,130.2c0,0.3-0.2,0.5-0.5,0.5h-26c-0.3,0-0.5-0.2-0.5-0.5v-26c0-0.3,0.2-0.5,0.5-0.5h26
			c0.3,0,0.5,0.2,0.5,0.5V130.2z"/>
	</g>
	<path fill="#5D5D5D" d="M130.1,117.2h-3.4c0,5.5,0,12.3,0,12.3h-5.1c0,0,0-6.7,0-12.3h-2.4v-4.3h2.4v-2.8c0-2,1-5.2,5.1-5.2l3.8,0
		v4.2c0,0-2.3,0-2.7,0c-0.4,0-1.1,0.2-1.1,1.2v2.5h3.9L130.1,117.2z"/>
</g>
<g>
	<g>
		
			<line fill="none" stroke="#2F77E8" stroke-width="2" stroke-linecap="round" stroke-miterlimit="10" x1="1" y1="13.4" x2="16" y2="1"/>
		
			<line fill="none" stroke="#2F77E8" stroke-width="2" stroke-linecap="round" stroke-miterlimit="10" x1="16" y1="1" x2="31" y2="13.4"/>
	</g>
	
		<line fill="none" stroke="#2F77E8" stroke-width="2" stroke-linecap="round" stroke-miterlimit="10" x1="3.6" y1="11.8" x2="3.6" y2="29.8"/>
	
		<line fill="none" stroke="#2F77E8" stroke-width="2" stroke-linecap="round" stroke-miterlimit="10" x1="3.6" y1="29.8" x2="28.4" y2="29.8"/>
	
		<line fill="none" stroke="#2F77E8" stroke-width="2" stroke-linecap="round" stroke-miterlimit="10" x1="28.4" y1="4" x2="28.4" y2="29.8"/>
	
		<line fill="none" stroke="#2F77E8" stroke-width="2" stroke-linecap="round" stroke-miterlimit="10" x1="24.6" y1="4" x2="24.6" y2="7.7"/>
	
		<line fill="none" stroke="#2F77E8" stroke-width="2" stroke-linecap="round" stroke-miterlimit="10" x1="24.6" y1="4" x2="28.1" y2="4"/>
</g>
</svg>
