<?xml version="1.0" encoding="utf-8"?>
<!-- Generator: Adobe Illustrator 18.0.0, SVG Export Plug-In . SVG Version: 6.00 Build 0)  -->
<!DOCTYPE svg PUBLIC "-//W3C//DTD SVG 1.1//EN" "http://www.w3.org/Graphics/SVG/1.1/DTD/svg11.dtd">
<svg version="1.1" id="Layer_1" xmlns="http://www.w3.org/2000/svg" xmlns:xlink="http://www.w3.org/1999/xlink" x="0px" y="0px"
	 viewBox="0 0 100 100" enable-background="new 0 0 100 100" xml:space="preserve">
<g>
	<path fill="#1D6EC6" d="M50,100L50,100C22.4,100,0,77.6,0,50v0C0,22.4,22.4,0,50,0h0c27.6,0,50,22.4,50,50v0
		C100,77.6,77.6,100,50,100z"/>
	<path fill="#FFFFFF" d="M37.4,83l10.5-27.9c0.2-0.6-0.2-1.2-0.8-1.2l-12.7,0c-0.7,0-1.1-0.8-0.7-1.4L61,16c0.6-0.8,1.9-0.1,1.5,0.8
		L52.1,44.7c-0.2,0.6,0.2,1.2,0.8,1.2l12.7,0c0.7,0,1.1,0.8,0.7,1.4L39,83.8C38.4,84.6,37.1,83.9,37.4,83z"/>
</g>
</svg>
